<svg id="Group_199" data-name="Group 199" xmlns="http://www.w3.org/2000/svg" width="392.646" height="392.648" viewBox="0 0 392.646 392.648">
  <path id="Path_523" data-name="Path 523" d="M1097.646,901.324c0,108.422-87.9,196.324-196.323,196.324S705,1009.746,705,901.324,792.9,705,901.322,705s196.323,87.9,196.323,196.324Zm0,0" transform="translate(-705 -705)" fill="#007ab9"/>
  <path id="Path_524" data-name="Path 524" d="M945.533,852.4v80.946H898.612V857.84c0-18.969-6.767-31.921-23.771-31.921-12.953,0-20.656,8.732-24.059,17.174-1.247,3.005-1.553,7.192-1.553,11.431v78.824H802.287s.634-127.9,0-141.144h46.943v20.01c-.088.152-.224.305-.312.459h.312v-.459c6.237-9.6,17.362-23.325,42.292-23.325,30.875,0,54.011,20.179,54.011,63.513ZM753.213,724.176c-16.063,0-26.558,10.542-26.558,24.383,0,13.552,10.184,24.384,25.941,24.384h.288c16.374,0,26.558-10.832,26.558-24.384-.311-13.841-10.184-24.383-26.23-24.383ZM729.442,933.348H776.35V792.2H729.442Zm0,0" transform="translate(-631.921 -640.29)" fill="#f1f2f2"/>
</svg>
