<svg xmlns="http://www.w3.org/2000/svg" width="265.351" height="265.351" viewBox="0 0 265.351 265.351">
  <g id="phone_icon" data-name="phone icon" transform="translate(-545 -545)">
    <path id="Path_212" data-name="Path 212" d="M677.676,561.585A116.09,116.09,0,1,1,561.585,677.676,116.23,116.23,0,0,1,677.676,561.585m0-16.585A132.675,132.675,0,1,0,810.351,677.676,132.681,132.681,0,0,0,677.676,545Zm73.966,177.034-.748-2.269c-1.748-5.211-7.513-10.656-12.827-12.113l-19.611-5.359c-5.312-1.443-12.892.5-16.8,4.405l-7.092,7.094A75.339,75.339,0,0,1,641.592,660.8l7.094-7.093c3.886-3.887,5.83-11.465,4.387-16.795L647.729,617.3c-1.44-5.314-6.917-11.08-12.129-12.828l-2.236-.747c-5.231-1.749-12.7.018-16.583,3.92l-10.626,10.626c-1.893,1.878-3.107,7.27-3.107,7.289A125.294,125.294,0,0,0,729.483,752.29c.181,0,5.735-1.183,7.631-3.078l10.623-10.626c3.887-3.869,5.638-11.337,3.905-16.552Zm0,0" fill="#2CC3E9"/>
  </g>
</svg>
